<COLLADA xmlns="http://www.collada.org/2005/11/COLLADASchema" version="1.4.1">
  <asset>
    <created>2026-10-02T16:16:20.711623</created>
    <modified>2026-10-02T16:16:20.711628</modified>
    <unit name="meter" meter="1.0" />
    <up_axis>Z_UP</up_axis>
  </asset>
  <library_effects>
    <effect id="cfbdf1e1602d438997fc2a3c45ec27a6" name="cfbdf1e1602d438997fc2a3c45ec27a6">
      <profile_COMMON>
        <technique sid="common">
          <phong>
            <emission>
              <color>0.0 0.0 0.0 1.0</color>
            </emission>
            <ambient>
              <color>0.5576470588235294 0.5623529411764706 0.5694117647058823 1.0</color>
            </ambient>
            <diffuse>
              <color>0.9294117647058824 0.9372549019607843 0.9490196078431372 1.0</color>
            </diffuse>
            <specular>
              <color>0.15 0.15 0.15 1.0</color>
            </specular>
            <shininess>
              <float>20.0</float>
            </shininess>
            <reflective>
              <color>0.0 0.0 0.0 1.0</color>
            </reflective>
            <reflectivity>
              <float>0.0</float>
            </reflectivity>
            <transparent>
              <color>0.0 0.0 0.0 1.0</color>
            </transparent>
            <transparency>
              <float>1.0</float>
            </transparency>
          </phong>
        </technique>
        <extra>
          <technique profile="GOOGLEEARTH">
            <double_sided>0</double_sided>
          </technique>
        </extra>
      </profile_COMMON>
    </effect>
    <effect id="f43c22f02cea4f73808f9763476c6141" name="f43c22f02cea4f73808f9763476c6141">
      <profile_COMMON>
        <technique sid="common">
          <phong>
            <emission>
              <color>0.0 0.0 0.0 1.0</color>
            </emission>
            <ambient>
              <color>0.37176470588235294 0.38823529411764707 0.4117647058823529 1.0</color>
            </ambient>
            <diffuse>
              <color>0.6196078431372549 0.6470588235294118 0.6862745098039216 1.0</color>
            </diffuse>
            <specular>
              <color>0.15 0.15 0.15 1.0</color>
            </specular>
            <shininess>
              <float>20.0</float>
            </shininess>
            <reflective>
              <color>0.0 0.0 0.0 1.0</color>
            </reflective>
            <reflectivity>
              <float>0.0</float>
            </reflectivity>
            <transparent>
              <color>0.0 0.0 0.0 1.0</color>
            </transparent>
            <transparency>
              <float>1.0</float>
            </transparency>
          </phong>
        </technique>
        <extra>
          <technique profile="GOOGLEEARTH">
            <double_sided>0</double_sided>
          </technique>
        </extra>
      </profile_COMMON>
    </effect>
    <effect id="b04dce176a5a4dd79c6e879620b6fdce" name="b04dce176a5a4dd79c6e879620b6fdce">
      <profile_COMMON>
        <technique sid="common">
          <phong>
            <emission>
              <color>0.0 0.0 0.0 1.0</color>
            </emission>
            <ambient>
              <color>0.508235294117647 0.52 0.5388235294117647 1.0</color>
            </ambient>
            <diffuse>
              <color>0.8470588235294118 0.8666666666666667 0.8980392156862745 1.0</color>
            </diffuse>
            <specular>
              <color>0.15 0.15 0.15 1.0</color>
            </specular>
            <shininess>
              <float>20.0</float>
            </shininess>
            <reflective>
              <color>0.0 0.0 0.0 1.0</color>
            </reflective>
            <reflectivity>
              <float>0.0</float>
            </reflectivity>
            <transparent>
              <color>0.0 0.0 0.0 1.0</color>
            </transparent>
            <transparency>
              <float>1.0</float>
            </transparency>
          </phong>
        </technique>
        <extra>
          <technique profile="GOOGLEEARTH">
            <double_sided>0</double_sided>
          </technique>
        </extra>
      </profile_COMMON>
    </effect>
    <effect id="08a89f3dbbb44028b753486dc607204d" name="08a89f3dbbb44028b753486dc607204d">
      <profile_COMMON>
        <technique sid="common">
          <phong>
            <emission>
              <color>0.0 0.0 0.0 1.0</color>
            </emission>
            <ambient>
              <color>0.12 0.12470588235294118 0.13647058823529412 1.0</color>
            </ambient>
            <diffuse>
              <color>0.2 0.20784313725490197 0.22745098039215686 1.0</color>
            </diffuse>
            <specular>
              <color>0.15 0.15 0.15 1.0</color>
            </specular>
            <shininess>
              <float>20.0</float>
            </shininess>
            <reflective>
              <color>0.0 0.0 0.0 1.0</color>
            </reflective>
            <reflectivity>
              <float>0.0</float>
            </reflectivity>
            <transparent>
              <color>0.0 0.0 0.0 1.0</color>
            </transparent>
            <transparency>
              <float>1.0</float>
            </transparency>
          </phong>
        </technique>
        <extra>
          <technique profile="GOOGLEEARTH">
            <double_sided>0</double_sided>
          </technique>
        </extra>
      </profile_COMMON>
    </effect>
    <effect id="d732f0835c98440782461e6668a26af4" name="d732f0835c98440782461e6668a26af4">
      <profile_COMMON>
        <technique sid="common">
          <phong>
            <emission>
              <color>0.0 0.0 0.0 1.0</color>
            </emission>
            <ambient>
              <color>0.16 0.16705882352941176 0.1788235294117647 1.0</color>
            </ambient>
            <diffuse>
              <color>0.26666666666666666 0.2784313725490196 0.2980392156862745 1.0</color>
            </diffuse>
            <specular>
              <color>0.15 0.15 0.15 1.0</color>
            </specular>
            <shininess>
              <float>20.0</float>
            </shininess>
            <reflective>
              <color>0.0 0.0 0.0 1.0</color>
            </reflective>
            <reflectivity>
              <float>0.0</float>
            </reflectivity>
            <transparent>
              <color>0.0 0.0 0.0 1.0</color>
            </transparent>
            <transparency>
              <float>1.0</float>
            </transparency>
          </phong>
        </technique>
        <extra>
          <technique profile="GOOGLEEARTH">
            <double_sided>0</double_sided>
          </technique>
        </extra>
      </profile_COMMON>
    </effect>
    <effect id="e2aa41f1e8084c19bec4d48e17e94ccd" name="e2aa41f1e8084c19bec4d48e17e94ccd">
      <profile_COMMON>
        <technique sid="common">
          <phong>
            <emission>
              <color>0.0 0.0 0.0 1.0</color>
            </emission>
            <ambient>
              <color>0.36 0.4917647058823529 0.6 1.0</color>
            </ambient>
            <diffuse>
              <color>0.6 0.8196078431372549 1.0 1.0</color>
            </diffuse>
            <specular>
              <color>0.15 0.15 0.15 1.0</color>
            </specular>
            <shininess>
              <float>20.0</float>
            </shininess>
            <reflective>
              <color>0.0 0.0 0.0 1.0</color>
            </reflective>
            <reflectivity>
              <float>0.0</float>
            </reflectivity>
            <transparent>
              <color>0.0 0.0 0.0 1.0</color>
            </transparent>
            <transparency>
              <float>1.0</float>
            </transparency>
          </phong>
        </technique>
        <extra>
          <technique profile="GOOGLEEARTH">
            <double_sided>0</double_sided>
          </technique>
        </extra>
      </profile_COMMON>
    </effect>
    <effect id="c5c6d6da2dd544ffb449eb51311458be" name="c5c6d6da2dd544ffb449eb51311458be">
      <profile_COMMON>
        <technique sid="common">
          <phong>
            <emission>
              <color>0.0 0.0 0.0 1.0</color>
            </emission>
            <ambient>
              <color>0.508235294117647 0.058823529411764705 0.058823529411764705 1.0</color>
            </ambient>
            <diffuse>
              <color>0.8470588235294118 0.09803921568627451 0.09803921568627451 1.0</color>
            </diffuse>
            <specular>
              <color>0.15 0.15 0.15 1.0</color>
            </specular>
            <shininess>
              <float>20.0</float>
            </shininess>
            <reflective>
              <color>0.0 0.0 0.0 1.0</color>
            </reflective>
            <reflectivity>
              <float>0.0</float>
            </reflectivity>
            <transparent>
              <color>0.0 0.0 0.0 1.0</color>
            </transparent>
            <transparency>
              <float>1.0</float>
            </transparency>
          </phong>
        </technique>
        <extra>
          <technique profile="GOOGLEEARTH">
            <double_sided>0</double_sided>
          </technique>
        </extra>
      </profile_COMMON>
    </effect>
  </library_effects>
  <library_geometries>
    <geometry id="200c5960338945c6aaf6e1dc3a3d2ead" name="c657f6206e1342e4a2f79f9f0e13d66d">
      <mesh>
        <source id="verts-array">
          <float_array count="318" id="verts-array-array">-0.42 0.475 0.48 -0.42 0.475 2.12 -0.42 0.479 0.48 -0.42 0.479 2.12 0.42 0.475 0.48 0.42 0.475 2.12 0.42 0.479 0.48 0.42 0.479 2.12 0.46667 -0.405 0.48 0.46667 -0.405 2.12 0.46667 0.405 0.48 0.46667 0.405 2.12 0.46933 -0.405 0.48 0.46933 -0.405 2.12 0.46933 0.405 0.48 0.46933 0.405 2.12 -0.42 -0.479 0.48 -0.42 -0.479 2.12 -0.42 -0.475 0.48 -0.42 -0.475 2.12 0.42 -0.479 0.48 0.42 -0.479 2.12 0.42 -0.475 0.48 0.42 -0.475 2.12 -0.46933 -0.405 0.48 -0.46933 -0.405 2.12 -0.46933 0.405 0.48 -0.46933 0.405 2.12 -0.46667 -0.405 0.48 -0.46667 -0.405 2.12 -0.46667 0.405 0.48 -0.46667 0.405 2.12 0.46 0.41 2.2 0.4593 0.42073 2.2 0.45721 0.43105 2.2 0.45382 0.44056 2.2 0.44926 0.44889 2.2 0.4437 0.45573 2.2 0.43737 0.46081 2.2 0.43049 0.46394 2.2 0.42333 0.465 2.2 -0.42333 0.465 2.2 -0.43049 0.46394 2.2 -0.43737 0.46081 2.2 -0.4437 0.45573 2.2 -0.44926 0.44889 2.2 -0.45382 0.44056 2.2 -0.45721 0.43105 2.2 -0.4593 0.42073 2.2 -0.46 0.41 2.2 -0.46 -0.41 2.2 -0.4593 -0.42073 2.2 -0.45721 -0.43105 2.2 -0.45382 -0.44056 2.2 -0.44926 -0.44889 2.2 -0.4437 -0.45573 2.2 -0.43737 -0.46081 2.2 -0.43049 -0.46394 2.2 -0.42333 -0.465 2.2 0.42333 -0.465 2.2 0.43049 -0.46394 2.2 0.43737 -0.46081 2.2 0.4437 -0.45573 2.2 0.44926 -0.44889 2.2 0.45382 -0.44056 2.2 0.45721 -0.43105 2.2 0.4593 -0.42073 2.2 0.46 -0.41 2.2 0.46 0.41 2.24 0.4593 0.42073 2.24 0.45721 0.43105 2.24 0.45382 0.44056 2.24 0.44926 0.44889 2.24 0.4437 0.45573 2.24 0.43737 0.46081 2.24 0.43049 0.46394 2.24 0.42333 0.465 2.24 -0.42333 0.465 2.24 -0.43049 0.46394 2.24 -0.43737 0.46081 2.24 -0.4437 0.45573 2.24 -0.44926 0.44889 2.24 -0.45382 0.44056 2.24 -0.45721 0.43105 2.24 -0.4593 0.42073 2.24 -0.46 0.41 2.24 -0.46 -0.41 2.24 -0.4593 -0.42073 2.24 -0.45721 -0.43105 2.24 -0.45382 -0.44056 2.24 -0.44926 -0.44889 2.24 -0.4437 -0.45573 2.24 -0.43737 -0.46081 2.24 -0.43049 -0.46394 2.24 -0.42333 -0.465 2.24 0.42333 -0.465 2.24 0.43049 -0.46394 2.24 0.43737 -0.46081 2.24 0.4437 -0.45573 2.24 0.44926 -0.44889 2.24 0.45382 -0.44056 2.24 0.45721 -0.43105 2.24 0.4593 -0.42073 2.24 0.46 -0.41 2.24 0 0 2.2 0 0 2.24</float_array>
          <technique_common>
            <accessor count="106" source="#verts-array-array" stride="3">
              <param type="float" name="X" />
              <param type="float" name="Y" />
              <param type="float" name="Z" />
            </accessor>
          </technique_common>
        </source>
        <source id="normals-array">
          <float_array count="318" id="normals-array-array">-0.5773503 -0.5773503 -0.5773503 -0.5773503 -0.5773503 0.5773503 -0.5773503 0.5773503 -0.5773503 -0.5773503 0.5773503 0.5773503 0.5773503 -0.5773503 -0.5773503 0.5773503 -0.5773503 0.5773503 0.5773503 0.5773503 -0.5773503 0.5773503 0.5773503 0.5773503 -0.5773503 -0.5773503 -0.5773503 -0.5773503 -0.5773503 0.5773503 -0.5773503 0.5773503 -0.5773503 -0.5773503 0.5773503 0.5773503 0.5773503 -0.5773503 -0.5773503 0.5773503 -0.5773503 0.5773503 0.5773503 0.5773503 -0.5773503 0.5773503 0.5773503 0.5773503 -0.5773503 -0.5773503 -0.5773503 -0.5773503 -0.5773503 0.5773503 -0.5773503 0.5773503 -0.5773503 -0.5773503 0.5773503 0.5773503 0.5773503 -0.5773503 -0.5773503 0.5773503 -0.5773503 0.5773503 0.5773503 0.5773503 -0.5773503 0.5773503 0.5773503 0.5773503 -0.5773503 -0.5773503 -0.5773503 -0.5773503 -0.5773503 0.5773503 -0.5773503 0.5773503 -0.5773503 -0.5773503 0.5773503 0.5773503 0.5773503 -0.5773503 -0.5773503 0.5773503 -0.5773503 0.5773503 0.5773503 0.5773503 -0.5773503 0.5773503 0.5773503 0.5773503 0.7139113 0.02326222 -0.6998496 0.7153137 0.09532388 -0.6922714 0.6960651 0.1934817 -0.6914176 0.6606589 0.2963341 -0.6897216 0.6029273 0.4051779 -0.6872478 0.5141707 0.5173977 -0.6840527 0.3841727 0.6243321 -0.6801623 0.2083135 0.7058792 -0.6770082 0.05307737 0.7209529 -0.6909484 -0.05307737 0.7209529 -0.6909484 -0.2083135 0.7058792 -0.6770082 -0.3841727 0.6243321 -0.6801623 -0.5141707 0.5173977 -0.6840527 -0.6029273 0.4051779 -0.6872478 -0.6606589 0.2963341 -0.6897216 -0.6960651 0.1934817 -0.6914176 -0.7153137 0.09532388 -0.6922714 -0.7139113 0.02326222 -0.6998496 -0.7139113 -0.02326222 -0.6998496 -0.7153137 -0.09532388 -0.6922714 -0.6960651 -0.1934817 -0.6914176 -0.6606589 -0.2963341 -0.6897216 -0.6029273 -0.4051779 -0.6872478 -0.5141707 -0.5173977 -0.6840527 -0.3841727 -0.6243321 -0.6801623 -0.2083135 -0.7058792 -0.6770082 -0.05307737 -0.7209529 -0.6909484 0.05307737 -0.7209529 -0.6909484 0.2083135 -0.7058792 -0.6770082 0.3841727 -0.6243321 -0.6801623 0.5141707 -0.5173977 -0.6840527 0.6029273 -0.4051779 -0.6872478 0.6606589 -0.2963341 -0.6897216 0.6960651 -0.1934817 -0.6914176 0.7153137 -0.09532388 -0.6922714 0.7139113 -0.02326222 -0.6998496 0.7139113 0.02326222 0.6998496 0.7153137 0.09532388 0.6922714 0.6960651 0.1934817 0.6914176 0.6606589 0.2963341 0.6897216 0.6029273 0.4051779 0.6872478 0.5141707 0.5173977 0.6840527 0.3841727 0.6243321 0.6801623 0.2083135 0.7058792 0.6770082 0.05307737 0.7209529 0.6909484 -0.05307737 0.7209529 0.6909484 -0.2083135 0.7058792 0.6770082 -0.3841727 0.6243321 0.6801623 -0.5141707 0.5173977 0.6840527 -0.6029273 0.4051779 0.6872478 -0.6606589 0.2963341 0.6897216 -0.6960651 0.1934817 0.6914176 -0.7153137 0.09532388 0.6922714 -0.7139113 0.02326222 0.6998496 -0.7139113 -0.02326222 0.6998496 -0.7153137 -0.09532388 0.6922714 -0.6960651 -0.1934817 0.6914176 -0.6606589 -0.2963341 0.6897216 -0.6029273 -0.4051779 0.6872478 -0.5141707 -0.5173977 0.6840527 -0.3841727 -0.6243321 0.6801623 -0.2083135 -0.7058792 0.6770082 -0.05307737 -0.7209529 0.6909484 0.05307737 -0.7209529 0.6909484 0.2083135 -0.7058792 0.6770082 0.3841727 -0.6243321 0.6801623 0.5141707 -0.5173977 0.6840527 0.6029273 -0.4051779 0.6872478 0.6606589 -0.2963341 0.6897216 0.6960651 -0.1934817 0.6914176 0.7153137 -0.09532388 0.6922714 0.7139113 -0.02326222 0.6998496 0 0 -1 0 0 1</float_array>
          <technique_common>
            <accessor count="106" source="#normals-array-array" stride="3">
              <param type="float" name="X" />
              <param type="float" name="Y" />
              <param type="float" name="Z" />
            </accessor>
          </technique_common>
        </source>
        <vertices id="verts-array-vertices">
          <input semantic="POSITION" source="#verts-array" />
        </vertices>
        <triangles count="192" material="material0">
          <input offset="0" semantic="VERTEX" source="#verts-array-vertices" />
          <input offset="1" semantic="NORMAL" source="#normals-array" />
          <p>1 1 3 3 0 0 4 4 1 1 0 0 0 0 3 3 2 2 2 2 4 4 0 0 1 1 7 7 3 3 5 5 1 1 4 4 5 5 7 7 1 1 3 3 7 7 2 2 6 6 4 4 2 2 2 2 7 7 6 6 6 6 5 5 4 4 7 7 5 5 6 6 9 9 11 11 8 8 12 12 9 9 8 8 8 8 11 11 10 10 10 10 12 12 8 8 9 9 15 15 11 11 13 13 9 9 12 12 13 13 15 15 9 9 11 11 15 15 10 10 14 14 12 12 10 10 10 10 15 15 14 14 14 14 13 13 12 12 15 15 13 13 14 14 17 17 19 19 16 16 20 20 17 17 16 16 16 16 19 19 18 18 18 18 20 20 16 16 17 17 23 23 19 19 21 21 17 17 20 20 21 21 23 23 17 17 19 19 23 23 18 18 22 22 20 20 18 18 18 18 23 23 22 22 22 22 21 21 20 20 23 23 21 21 22 22 25 25 27 27 24 24 28 28 25 25 24 24 24 24 27 27 26 26 26 26 28 28 24 24 25 25 31 31 27 27 29 29 25 25 28 28 29 29 31 31 25 25 27 27 31 31 26 26 30 30 28 28 26 26 26 26 31 31 30 30 30 30 29 29 28 28 31 31 29 29 30 30 32 32 33 33 69 69 32 32 69 69 68 68 104 104 33 33 32 32 105 105 68 68 69 69 33 33 34 34 70 70 33 33 70 70 69 69 104 104 34 34 33 33 105 105 69 69 70 70 34 34 35 35 71 71 34 34 71 71 70 70 104 104 35 35 34 34 105 105 70 70 71 71 35 35 36 36 72 72 35 35 72 72 71 71 104 104 36 36 35 35 105 105 71 71 72 72 36 36 37 37 73 73 36 36 73 73 72 72 104 104 37 37 36 36 105 105 72 72 73 73 37 37 38 38 74 74 37 37 74 74 73 73 104 104 38 38 37 37 105 105 73 73 74 74 38 38 39 39 75 75 38 38 75 75 74 74 104 104 39 39 38 38 105 105 74 74 75 75 39 39 40 40 76 76 39 39 76 76 75 75 104 104 40 40 39 39 105 105 75 75 76 76 40 40 41 41 77 77 40 40 77 77 76 76 104 104 41 41 40 40 105 105 76 76 77 77 41 41 42 42 78 78 41 41 78 78 77 77 104 104 42 42 41 41 105 105 77 77 78 78 42 42 43 43 79 79 42 42 79 79 78 78 104 104 43 43 42 42 105 105 78 78 79 79 43 43 44 44 80 80 43 43 80 80 79 79 104 104 44 44 43 43 105 105 79 79 80 80 44 44 45 45 81 81 44 44 81 81 80 80 104 104 45 45 44 44 105 105 80 80 81 81 45 45 46 46 82 82 45 45 82 82 81 81 104 104 46 46 45 45 105 105 81 81 82 82 46 46 47 47 83 83 46 46 83 83 82 82 104 104 47 47 46 46 105 105 82 82 83 83 47 47 48 48 84 84 47 47 84 84 83 83 104 104 48 48 47 47 105 105 83 83 84 84 48 48 49 49 85 85 48 48 85 85 84 84 104 104 49 49 48 48 105 105 84 84 85 85 49 49 50 50 86 86 49 49 86 86 85 85 104 104 50 50 49 49 105 105 85 85 86 86 50 50 51 51 87 87 50 50 87 87 86 86 104 104 51 51 50 50 105 105 86 86 87 87 51 51 52 52 88 88 51 51 88 88 87 87 104 104 52 52 51 51 105 105 87 87 88 88 52 52 53 53 89 89 52 52 89 89 88 88 104 104 53 53 52 52 105 105 88 88 89 89 53 53 54 54 90 90 53 53 90 90 89 89 104 104 54 54 53 53 105 105 89 89 90 90 54 54 55 55 91 91 54 54 91 91 90 90 104 104 55 55 54 54 105 105 90 90 91 91 55 55 56 56 92 92 55 55 92 92 91 91 104 104 56 56 55 55 105 105 91 91 92 92 56 56 57 57 93 93 56 56 93 93 92 92 104 104 57 57 56 56 105 105 92 92 93 93 57 57 58 58 94 94 57 57 94 94 93 93 104 104 58 58 57 57 105 105 93 93 94 94 58 58 59 59 95 95 58 58 95 95 94 94 104 104 59 59 58 58 105 105 94 94 95 95 59 59 60 60 96 96 59 59 96 96 95 95 104 104 60 60 59 59 105 105 95 95 96 96 60 60 61 61 97 97 60 60 97 97 96 96 104 104 61 61 60 60 105 105 96 96 97 97 61 61 62 62 98 98 61 61 98 98 97 97 104 104 62 62 61 61 105 105 97 97 98 98 62 62 63 63 99 99 62 62 99 99 98 98 104 104 63 63 62 62 105 105 98 98 99 99 63 63 64 64 100 100 63 63 100 100 99 99 104 104 64 64 63 63 105 105 99 99 100 100 64 64 65 65 101 101 64 64 101 101 100 100 104 104 65 65 64 64 105 105 100 100 101 101 65 65 66 66 102 102 65 65 102 102 101 101 104 104 66 66 65 65 105 105 101 101 102 102 66 66 67 67 103 103 66 66 103 103 102 102 104 104 67 67 66 66 105 105 102 102 103 103 67 67 32 32 68 68 67 67 68 68 103 103 104 104 32 32 67 67 105 105 103 103 68 68</p>
        </triangles>
      </mesh>
    </geometry>
    <geometry id="4c2f616c1b874e4783517b0545a9a834" name="07495a531b924af89b86f37357cf51d6">
      <mesh>
        <source id="verts-array">
          <float_array count="294" id="verts-array-array">0.46667 0.415 0.4 0.4659 0.42671 0.4 0.46362 0.43796 0.4 0.45993 0.44833 0.4 0.45495 0.45743 0.4 0.44889 0.46489 0.4 0.44197 0.47043 0.4 0.43447 0.47385 0.4 0.42667 0.475 0.4 -0.42667 0.475 0.4 -0.43447 0.47385 0.4 -0.44197 0.47043 0.4 -0.44889 0.46489 0.4 -0.45495 0.45743 0.4 -0.45993 0.44833 0.4 -0.46362 0.43796 0.4 -0.4659 0.42671 0.4 -0.46667 0.415 0.4 -0.46667 -0.415 0.4 -0.4659 -0.42671 0.4 -0.46362 -0.43796 0.4 -0.45993 -0.44833 0.4 -0.45495 -0.45743 0.4 -0.44889 -0.46489 0.4 -0.44197 -0.47043 0.4 -0.43447 -0.47385 0.4 -0.42667 -0.475 0.4 0.42667 -0.475 0.4 0.43447 -0.47385 0.4 0.44197 -0.47043 0.4 0.44889 -0.46489 0.4 0.45495 -0.45743 0.4 0.45993 -0.44833 0.4 0.46362 -0.43796 0.4 0.4659 -0.42671 0.4 0.46667 -0.415 0.4 0.46667 0.415 2.2 0.4659 0.42671 2.2 0.46362 0.43796 2.2 0.45993 0.44833 2.2 0.45495 0.45743 2.2 0.44889 0.46489 2.2 0.44197 0.47043 2.2 0.43447 0.47385 2.2 0.42667 0.475 2.2 -0.42667 0.475 2.2 -0.43447 0.47385 2.2 -0.44197 0.47043 2.2 -0.44889 0.46489 2.2 -0.45495 0.45743 2.2 -0.45993 0.44833 2.2 -0.46362 0.43796 2.2 -0.4659 0.42671 2.2 -0.46667 0.415 2.2 -0.46667 -0.415 2.2 -0.4659 -0.42671 2.2 -0.46362 -0.43796 2.2 -0.45993 -0.44833 2.2 -0.45495 -0.45743 2.2 -0.44889 -0.46489 2.2 -0.44197 -0.47043 2.2 -0.43447 -0.47385 2.2 -0.42667 -0.475 2.2 0.42667 -0.475 2.2 0.43447 -0.47385 2.2 0.44197 -0.47043 2.2 0.44889 -0.46489 2.2 0.45495 -0.45743 2.2 0.45993 -0.44833 2.2 0.46362 -0.43796 2.2 0.4659 -0.42671 2.2 0.46667 -0.415 2.2 0 0 0.4 0 0 2.2 -0.16167 -0.45 2.24 -0.16167 -0.45 2.25 -0.16167 0.45 2.24 -0.16167 0.45 2.25 -0.15167 -0.45 2.24 -0.15167 -0.45 2.25 -0.15167 0.45 2.24 -0.15167 0.45 2.25 0.15167 -0.45 2.24 0.15167 -0.45 2.25 0.15167 0.45 2.24 0.15167 0.45 2.25 0.16167 -0.45 2.24 0.16167 -0.45 2.25 0.16167 0.45 2.24 0.16167 0.45 2.25 0.472 0.12 1.05 0.472 0.12 1.12 0.472 0.16 1.05 0.472 0.16 1.12 0.47467 0.12 1.05 0.47467 0.12 1.12 0.47467 0.16 1.05 0.47467 0.16 1.12</float_array>
          <technique_common>
            <accessor count="98" source="#verts-array-array" stride="3">
              <param type="float" name="X" />
              <param type="float" name="Y" />
              <param type="float" name="Z" />
            </accessor>
          </technique_common>
        </source>
        <source id="normals-array">
          <float_array count="294" id="normals-array-array">0.713961 0.02344821 -0.6997928 0.7152439 0.09555387 -0.6923118 0.696036 0.1933161 -0.6914931 0.6608013 0.2961244 -0.6896752 0.6030022 0.4050317 -0.6872683 0.5140511 0.5177255 -0.6838946 0.3839718 0.624223 -0.6803759 0.2084518 0.7059827 -0.6768576 0.05285813 0.7209077 -0.6910124 -0.05285813 0.7209077 -0.6910124 -0.2084518 0.7059827 -0.6768576 -0.3839718 0.624223 -0.6803759 -0.5140511 0.5177255 -0.6838946 -0.6030022 0.4050317 -0.6872683 -0.6608013 0.2961244 -0.6896752 -0.696036 0.1933161 -0.6914931 -0.7152439 0.09555387 -0.6923118 -0.713961 0.02344821 -0.6997928 -0.713961 -0.02344821 -0.6997928 -0.7152439 -0.09555387 -0.6923118 -0.696036 -0.1933161 -0.6914931 -0.6608013 -0.2961244 -0.6896752 -0.6030022 -0.4050317 -0.6872683 -0.5140511 -0.5177255 -0.6838946 -0.3839718 -0.624223 -0.6803759 -0.2084518 -0.7059827 -0.6768576 -0.05285813 -0.7209077 -0.6910124 0.05285813 -0.7209077 -0.6910124 0.2084518 -0.7059827 -0.6768576 0.3839718 -0.624223 -0.6803759 0.5140511 -0.5177255 -0.6838946 0.6030022 -0.4050317 -0.6872683 0.6608013 -0.2961244 -0.6896752 0.696036 -0.1933161 -0.6914931 0.7152439 -0.09555387 -0.6923118 0.713961 -0.02344821 -0.6997928 0.713961 0.02344821 0.6997928 0.7152439 0.09555387 0.6923118 0.696036 0.1933161 0.6914931 0.6608013 0.2961244 0.6896752 0.6030022 0.4050317 0.6872683 0.5140511 0.5177255 0.6838946 0.3839718 0.624223 0.6803759 0.2084518 0.7059827 0.6768576 0.05285813 0.7209077 0.6910124 -0.05285813 0.7209077 0.6910124 -0.2084518 0.7059827 0.6768576 -0.3839718 0.624223 0.6803759 -0.5140511 0.5177255 0.6838946 -0.6030022 0.4050317 0.6872683 -0.6608013 0.2961244 0.6896752 -0.696036 0.1933161 0.6914931 -0.7152439 0.09555387 0.6923118 -0.713961 0.02344821 0.6997928 -0.713961 -0.02344821 0.6997928 -0.7152439 -0.09555387 0.6923118 -0.696036 -0.1933161 0.6914931 -0.6608013 -0.2961244 0.6896752 -0.6030022 -0.4050317 0.6872683 -0.5140511 -0.5177255 0.6838946 -0.3839718 -0.624223 0.6803759 -0.2084518 -0.7059827 0.6768576 -0.05285813 -0.7209077 0.6910124 0.05285813 -0.7209077 0.6910124 0.2084518 -0.7059827 0.6768576 0.3839718 -0.624223 0.6803759 0.5140511 -0.5177255 0.6838946 0.6030022 -0.4050317 0.6872683 0.6608013 -0.2961244 0.6896752 0.696036 -0.1933161 0.6914931 0.7152439 -0.09555387 0.6923118 0.713961 -0.02344821 0.6997928 0 0 -1 0 0 1 -0.5773503 -0.5773503 -0.5773503 -0.5773503 -0.5773503 0.5773503 -0.5773503 0.5773503 -0.5773503 -0.5773503 0.5773503 0.5773503 0.5773503 -0.5773503 -0.5773503 0.5773503 -0.5773503 0.5773503 0.5773503 0.5773503 -0.5773503 0.5773503 0.5773503 0.5773503 -0.5773503 -0.5773503 -0.5773503 -0.5773503 -0.5773503 0.5773503 -0.5773503 0.5773503 -0.5773503 -0.5773503 0.5773503 0.5773503 0.5773503 -0.5773503 -0.5773503 0.5773503 -0.5773503 0.5773503 0.5773503 0.5773503 -0.5773503 0.5773503 0.5773503 0.5773503 -0.5773503 -0.5773503 -0.5773503 -0.5773503 -0.5773503 0.5773503 -0.5773503 0.5773503 -0.5773503 -0.5773503 0.5773503 0.5773503 0.5773503 -0.5773503 -0.5773503 0.5773503 -0.5773503 0.5773503 0.5773503 0.5773503 -0.5773503 0.5773503 0.5773503 0.5773503</float_array>
          <technique_common>
            <accessor count="98" source="#normals-array-array" stride="3">
              <param type="float" name="X" />
              <param type="float" name="Y" />
              <param type="float" name="Z" />
            </accessor>
          </technique_common>
        </source>
        <vertices id="verts-array-vertices">
          <input semantic="POSITION" source="#verts-array" />
        </vertices>
        <triangles count="180" material="material1">
          <input offset="0" semantic="VERTEX" source="#verts-array-vertices" />
          <input offset="1" semantic="NORMAL" source="#normals-array" />
          <p>0 0 1 1 37 37 0 0 37 37 36 36 72 72 1 1 0 0 73 73 36 36 37 37 1 1 2 2 38 38 1 1 38 38 37 37 72 72 2 2 1 1 73 73 37 37 38 38 2 2 3 3 39 39 2 2 39 39 38 38 72 72 3 3 2 2 73 73 38 38 39 39 3 3 4 4 40 40 3 3 40 40 39 39 72 72 4 4 3 3 73 73 39 39 40 40 4 4 5 5 41 41 4 4 41 41 40 40 72 72 5 5 4 4 73 73 40 40 41 41 5 5 6 6 42 42 5 5 42 42 41 41 72 72 6 6 5 5 73 73 41 41 42 42 6 6 7 7 43 43 6 6 43 43 42 42 72 72 7 7 6 6 73 73 42 42 43 43 7 7 8 8 44 44 7 7 44 44 43 43 72 72 8 8 7 7 73 73 43 43 44 44 8 8 9 9 45 45 8 8 45 45 44 44 72 72 9 9 8 8 73 73 44 44 45 45 9 9 10 10 46 46 9 9 46 46 45 45 72 72 10 10 9 9 73 73 45 45 46 46 10 10 11 11 47 47 10 10 47 47 46 46 72 72 11 11 10 10 73 73 46 46 47 47 11 11 12 12 48 48 11 11 48 48 47 47 72 72 12 12 11 11 73 73 47 47 48 48 12 12 13 13 49 49 12 12 49 49 48 48 72 72 13 13 12 12 73 73 48 48 49 49 13 13 14 14 50 50 13 13 50 50 49 49 72 72 14 14 13 13 73 73 49 49 50 50 14 14 15 15 51 51 14 14 51 51 50 50 72 72 15 15 14 14 73 73 50 50 51 51 15 15 16 16 52 52 15 15 52 52 51 51 72 72 16 16 15 15 73 73 51 51 52 52 16 16 17 17 53 53 16 16 53 53 52 52 72 72 17 17 16 16 73 73 52 52 53 53 17 17 18 18 54 54 17 17 54 54 53 53 72 72 18 18 17 17 73 73 53 53 54 54 18 18 19 19 55 55 18 18 55 55 54 54 72 72 19 19 18 18 73 73 54 54 55 55 19 19 20 20 56 56 19 19 56 56 55 55 72 72 20 20 19 19 73 73 55 55 56 56 20 20 21 21 57 57 20 20 57 57 56 56 72 72 21 21 20 20 73 73 56 56 57 57 21 21 22 22 58 58 21 21 58 58 57 57 72 72 22 22 21 21 73 73 57 57 58 58 22 22 23 23 59 59 22 22 59 59 58 58 72 72 23 23 22 22 73 73 58 58 59 59 23 23 24 24 60 60 23 23 60 60 59 59 72 72 24 24 23 23 73 73 59 59 60 60 24 24 25 25 61 61 24 24 61 61 60 60 72 72 25 25 24 24 73 73 60 60 61 61 25 25 26 26 62 62 25 25 62 62 61 61 72 72 26 26 25 25 73 73 61 61 62 62 26 26 27 27 63 63 26 26 63 63 62 62 72 72 27 27 26 26 73 73 62 62 63 63 27 27 28 28 64 64 27 27 64 64 63 63 72 72 28 28 27 27 73 73 63 63 64 64 28 28 29 29 65 65 28 28 65 65 64 64 72 72 29 29 28 28 73 73 64 64 65 65 29 29 30 30 66 66 29 29 66 66 65 65 72 72 30 30 29 29 73 73 65 65 66 66 30 30 31 31 67 67 30 30 67 67 66 66 72 72 31 31 30 30 73 73 66 66 67 67 31 31 32 32 68 68 31 31 68 68 67 67 72 72 32 32 31 31 73 73 67 67 68 68 32 32 33 33 69 69 32 32 69 69 68 68 72 72 33 33 32 32 73 73 68 68 69 69 33 33 34 34 70 70 33 33 70 70 69 69 72 72 34 34 33 33 73 73 69 69 70 70 34 34 35 35 71 71 34 34 71 71 70 70 72 72 35 35 34 34 73 73 70 70 71 71 35 35 0 0 36 36 35 35 36 36 71 71 72 72 0 0 35 35 73 73 71 71 36 36 75 75 77 77 74 74 78 78 75 75 74 74 74 74 77 77 76 76 76 76 78 78 74 74 75 75 81 81 77 77 79 79 75 75 78 78 79 79 81 81 75 75 77 77 81 81 76 76 80 80 78 78 76 76 76 76 81 81 80 80 80 80 79 79 78 78 81 81 79 79 80 80 83 83 85 85 82 82 86 86 83 83 82 82 82 82 85 85 84 84 84 84 86 86 82 82 83 83 89 89 85 85 87 87 83 83 86 86 87 87 89 89 83 83 85 85 89 89 84 84 88 88 86 86 84 84 84 84 89 89 88 88 88 88 87 87 86 86 89 89 87 87 88 88 91 91 93 93 90 90 94 94 91 91 90 90 90 90 93 93 92 92 92 92 94 94 90 90 91 91 97 97 93 93 95 95 91 91 94 94 95 95 97 97 91 91 93 93 97 97 92 92 96 96 94 94 92 92 92 92 97 97 96 96 96 96 95 95 94 94 97 97 95 95 96 96</p>
        </triangles>
      </mesh>
    </geometry>
    <geometry id="f551d8fa0df8476b9243b5189dd8b00c" name="9ab38a747e7342a5b8f72722143b585f">
      <mesh>
        <source id="verts-array">
          <float_array count="48" id="verts-array-array">-0.24667 -0.484 0.56 -0.24667 -0.484 1.98 -0.24667 -0.481 0.56 -0.24667 -0.481 1.98 -0.004 -0.484 0.56 -0.004 -0.484 1.98 -0.004 -0.481 0.56 -0.004 -0.481 1.98 0.004 -0.484 0.56 0.004 -0.484 1.98 0.004 -0.481 0.56 0.004 -0.481 1.98 0.24667 -0.484 0.56 0.24667 -0.484 1.98 0.24667 -0.481 0.56 0.24667 -0.481 1.98</float_array>
          <technique_common>
            <accessor count="16" source="#verts-array-array" stride="3">
              <param type="float" name="X" />
              <param type="float" name="Y" />
              <param type="float" name="Z" />
            </accessor>
          </technique_common>
        </source>
        <source id="normals-array">
          <float_array count="48" id="normals-array-array">-0.5773503 -0.5773503 -0.5773503 -0.5773503 -0.5773503 0.5773503 -0.5773503 0.5773503 -0.5773503 -0.5773503 0.5773503 0.5773503 0.5773503 -0.5773503 -0.5773503 0.5773503 -0.5773503 0.5773503 0.5773503 0.5773503 -0.5773503 0.5773503 0.5773503 0.5773503 -0.5773503 -0.5773503 -0.5773503 -0.5773503 -0.5773503 0.5773503 -0.5773503 0.5773503 -0.5773503 -0.5773503 0.5773503 0.5773503 0.5773503 -0.5773503 -0.5773503 0.5773503 -0.5773503 0.5773503 0.5773503 0.5773503 -0.5773503 0.5773503 0.5773503 0.5773503</float_array>
          <technique_common>
            <accessor count="16" source="#normals-array-array" stride="3">
              <param type="float" name="X" />
              <param type="float" name="Y" />
              <param type="float" name="Z" />
            </accessor>
          </technique_common>
        </source>
        <vertices id="verts-array-vertices">
          <input semantic="POSITION" source="#verts-array" />
        </vertices>
        <triangles count="24" material="material2">
          <input offset="0" semantic="VERTEX" source="#verts-array-vertices" />
          <input offset="1" semantic="NORMAL" source="#normals-array" />
          <p>1 1 3 3 0 0 4 4 1 1 0 0 0 0 3 3 2 2 2 2 4 4 0 0 1 1 7 7 3 3 5 5 1 1 4 4 5 5 7 7 1 1 3 3 7 7 2 2 6 6 4 4 2 2 2 2 7 7 6 6 6 6 5 5 4 4 7 7 5 5 6 6 9 9 11 11 8 8 12 12 9 9 8 8 8 8 11 11 10 10 10 10 12 12 8 8 9 9 15 15 11 11 13 13 9 9 12 12 13 13 15 15 9 9 11 11 15 15 10 10 14 14 12 12 10 10 10 10 15 15 14 14 14 14 13 13 12 12 15 15 13 13 14 14</p>
        </triangles>
      </mesh>
    </geometry>
    <geometry id="e6eefd30bbee4a7eba2d557c5661a5d3" name="e184b841260d4690b8003e4712294ef6">
      <mesh>
        <source id="verts-array">
          <float_array count="144" id="verts-array-array">0.46667 -0.425 0.15 0.46667 -0.425 0.37 0.46667 0.425 0.15 0.46667 0.425 0.37 0.49667 -0.425 0.15 0.49667 -0.425 0.37 0.49667 0.425 0.15 0.49667 0.425 0.37 -0.49667 -0.425 0.15 -0.49667 -0.425 0.37 -0.49667 0.425 0.15 -0.49667 0.425 0.37 -0.46667 -0.425 0.15 -0.46667 -0.425 0.37 -0.46667 0.425 0.15 -0.46667 0.425 0.37 -0.25667 -0.482 0.53 -0.25667 -0.482 2.01 -0.25667 -0.48 0.53 -0.25667 -0.48 2.01 0.25667 -0.482 0.53 0.25667 -0.482 2.01 0.25667 -0.48 0.53 0.25667 -0.48 2.01 -0.03333 -0.494 1.12 -0.03333 -0.494 1.38 -0.03333 -0.483 1.12 -0.03333 -0.483 1.38 -0.02 -0.494 1.12 -0.02 -0.494 1.38 -0.02 -0.483 1.12 -0.02 -0.483 1.38 0.02 -0.494 1.12 0.02 -0.494 1.38 0.02 -0.483 1.12 0.02 -0.483 1.38 0.03333 -0.494 1.12 0.03333 -0.494 1.38 0.03333 -0.483 1.12 0.03333 -0.483 1.38 0.47 0.09 0.7 0.47 0.09 1.2 0.47 0.31 0.7 0.47 0.31 1.2 0.472 0.09 0.7 0.472 0.09 1.2 0.472 0.31 0.7 0.472 0.31 1.2</float_array>
          <technique_common>
            <accessor count="48" source="#verts-array-array" stride="3">
              <param type="float" name="X" />
              <param type="float" name="Y" />
              <param type="float" name="Z" />
            </accessor>
          </technique_common>
        </source>
        <source id="normals-array">
          <float_array count="144" id="normals-array-array">-0.5773503 -0.5773503 -0.5773503 -0.5773503 -0.5773503 0.5773503 -0.5773503 0.5773503 -0.5773503 -0.5773503 0.5773503 0.5773503 0.5773503 -0.5773503 -0.5773503 0.5773503 -0.5773503 0.5773503 0.5773503 0.5773503 -0.5773503 0.5773503 0.5773503 0.5773503 -0.5773503 -0.5773503 -0.5773503 -0.5773503 -0.5773503 0.5773503 -0.5773503 0.5773503 -0.5773503 -0.5773503 0.5773503 0.5773503 0.5773503 -0.5773503 -0.5773503 0.5773503 -0.5773503 0.5773503 0.5773503 0.5773503 -0.5773503 0.5773503 0.5773503 0.5773503 -0.5773503 -0.5773503 -0.5773503 -0.5773503 -0.5773503 0.5773503 -0.5773503 0.5773503 -0.5773503 -0.5773503 0.5773503 0.5773503 0.5773503 -0.5773503 -0.5773503 0.5773503 -0.5773503 0.5773503 0.5773503 0.5773503 -0.5773503 0.5773503 0.5773503 0.5773503 -0.5773503 -0.5773503 -0.5773503 -0.5773503 -0.5773503 0.5773503 -0.5773503 0.5773503 -0.5773503 -0.5773503 0.5773503 0.5773503 0.5773503 -0.5773503 -0.5773503 0.5773503 -0.5773503 0.5773503 0.5773503 0.5773503 -0.5773503 0.5773503 0.5773503 0.5773503 -0.5773503 -0.5773503 -0.5773503 -0.5773503 -0.5773503 0.5773503 -0.5773503 0.5773503 -0.5773503 -0.5773503 0.5773503 0.5773503 0.5773503 -0.5773503 -0.5773503 0.5773503 -0.5773503 0.5773503 0.5773503 0.5773503 -0.5773503 0.5773503 0.5773503 0.5773503 -0.5773503 -0.5773503 -0.5773503 -0.5773503 -0.5773503 0.5773503 -0.5773503 0.5773503 -0.5773503 -0.5773503 0.5773503 0.5773503 0.5773503 -0.5773503 -0.5773503 0.5773503 -0.5773503 0.5773503 0.5773503 0.5773503 -0.5773503 0.5773503 0.5773503 0.5773503</float_array>
          <technique_common>
            <accessor count="48" source="#normals-array-array" stride="3">
              <param type="float" name="X" />
              <param type="float" name="Y" />
              <param type="float" name="Z" />
            </accessor>
          </technique_common>
        </source>
        <vertices id="verts-array-vertices">
          <input semantic="POSITION" source="#verts-array" />
        </vertices>
        <triangles count="72" material="material3">
          <input offset="0" semantic="VERTEX" source="#verts-array-vertices" />
          <input offset="1" semantic="NORMAL" source="#normals-array" />
          <p>1 1 3 3 0 0 4 4 1 1 0 0 0 0 3 3 2 2 2 2 4 4 0 0 1 1 7 7 3 3 5 5 1 1 4 4 5 5 7 7 1 1 3 3 7 7 2 2 6 6 4 4 2 2 2 2 7 7 6 6 6 6 5 5 4 4 7 7 5 5 6 6 9 9 11 11 8 8 12 12 9 9 8 8 8 8 11 11 10 10 10 10 12 12 8 8 9 9 15 15 11 11 13 13 9 9 12 12 13 13 15 15 9 9 11 11 15 15 10 10 14 14 12 12 10 10 10 10 15 15 14 14 14 14 13 13 12 12 15 15 13 13 14 14 17 17 19 19 16 16 20 20 17 17 16 16 16 16 19 19 18 18 18 18 20 20 16 16 17 17 23 23 19 19 21 21 17 17 20 20 21 21 23 23 17 17 19 19 23 23 18 18 22 22 20 20 18 18 18 18 23 23 22 22 22 22 21 21 20 20 23 23 21 21 22 22 25 25 27 27 24 24 28 28 25 25 24 24 24 24 27 27 26 26 26 26 28 28 24 24 25 25 31 31 27 27 29 29 25 25 28 28 29 29 31 31 25 25 27 27 31 31 26 26 30 30 28 28 26 26 26 26 31 31 30 30 30 30 29 29 28 28 31 31 29 29 30 30 33 33 35 35 32 32 36 36 33 33 32 32 32 32 35 35 34 34 34 34 36 36 32 32 33 33 39 39 35 35 37 37 33 33 36 36 37 37 39 39 33 33 35 35 39 39 34 34 38 38 36 36 34 34 34 34 39 39 38 38 38 38 37 37 36 36 39 39 37 37 38 38 41 41 43 43 40 40 44 44 41 41 40 40 40 40 43 43 42 42 42 42 44 44 40 40 41 41 47 47 43 43 45 45 41 41 44 44 45 45 47 47 41 41 43 43 47 47 42 42 46 46 44 44 42 42 42 42 47 47 46 46 46 46 45 45 44 44 47 47 45 45 46 46</p>
        </triangles>
      </mesh>
    </geometry>
    <geometry id="50a73f034bc14583b529e30610139a91" name="4f5be96cdeb049ffb9227646a0e38caa">
      <mesh>
        <source id="verts-array">
          <float_array count="24" id="verts-array-array">-0.46667 -0.45 0.12 -0.46667 -0.45 0.4 -0.46667 0.45 0.12 -0.46667 0.45 0.4 0.46667 -0.45 0.12 0.46667 -0.45 0.4 0.46667 0.45 0.12 0.46667 0.45 0.4</float_array>
          <technique_common>
            <accessor count="8" source="#verts-array-array" stride="3">
              <param type="float" name="X" />
              <param type="float" name="Y" />
              <param type="float" name="Z" />
            </accessor>
          </technique_common>
        </source>
        <source id="normals-array">
          <float_array count="24" id="normals-array-array">-0.5773503 -0.5773503 -0.5773503 -0.5773503 -0.5773503 0.5773503 -0.5773503 0.5773503 -0.5773503 -0.5773503 0.5773503 0.5773503 0.5773503 -0.5773503 -0.5773503 0.5773503 -0.5773503 0.5773503 0.5773503 0.5773503 -0.5773503 0.5773503 0.5773503 0.5773503</float_array>
          <technique_common>
            <accessor count="8" source="#normals-array-array" stride="3">
              <param type="float" name="X" />
              <param type="float" name="Y" />
              <param type="float" name="Z" />
            </accessor>
          </technique_common>
        </source>
        <vertices id="verts-array-vertices">
          <input semantic="POSITION" source="#verts-array" />
        </vertices>
        <triangles count="12" material="material4">
          <input offset="0" semantic="VERTEX" source="#verts-array-vertices" />
          <input offset="1" semantic="NORMAL" source="#normals-array" />
          <p>1 1 3 3 0 0 4 4 1 1 0 0 0 0 3 3 2 2 2 2 4 4 0 0 1 1 7 7 3 3 5 5 1 1 4 4 5 5 7 7 1 1 3 3 7 7 2 2 6 6 4 4 2 2 2 2 7 7 6 6 6 6 5 5 4 4 7 7 5 5 6 6</p>
        </triangles>
      </mesh>
    </geometry>
    <geometry id="a0a5fad2fbc643dcb12ee92aa5f1b138" name="cc6de23b95a24048beb443ef008820b1">
      <mesh>
        <source id="verts-array">
          <float_array count="48" id="verts-array-array">0.49667 0.275 0.27 0.49667 0.275 0.33 0.49667 0.4 0.27 0.49667 0.4 0.33 0.5 0.275 0.27 0.5 0.275 0.33 0.5 0.4 0.27 0.5 0.4 0.33 0.49667 -0.4 0.27 0.49667 -0.4 0.33 0.49667 -0.275 0.27 0.49667 -0.275 0.33 0.5 -0.4 0.27 0.5 -0.4 0.33 0.5 -0.275 0.27 0.5 -0.275 0.33</float_array>
          <technique_common>
            <accessor count="16" source="#verts-array-array" stride="3">
              <param type="float" name="X" />
              <param type="float" name="Y" />
              <param type="float" name="Z" />
            </accessor>
          </technique_common>
        </source>
        <source id="normals-array">
          <float_array count="48" id="normals-array-array">-0.5773503 -0.5773503 -0.5773503 -0.5773503 -0.5773503 0.5773503 -0.5773503 0.5773503 -0.5773503 -0.5773503 0.5773503 0.5773503 0.5773503 -0.5773503 -0.5773503 0.5773503 -0.5773503 0.5773503 0.5773503 0.5773503 -0.5773503 0.5773503 0.5773503 0.5773503 -0.5773503 -0.5773503 -0.5773503 -0.5773503 -0.5773503 0.5773503 -0.5773503 0.5773503 -0.5773503 -0.5773503 0.5773503 0.5773503 0.5773503 -0.5773503 -0.5773503 0.5773503 -0.5773503 0.5773503 0.5773503 0.5773503 -0.5773503 0.5773503 0.5773503 0.5773503</float_array>
          <technique_common>
            <accessor count="16" source="#normals-array-array" stride="3">
              <param type="float" name="X" />
              <param type="float" name="Y" />
              <param type="float" name="Z" />
            </accessor>
          </technique_common>
        </source>
        <vertices id="verts-array-vertices">
          <input semantic="POSITION" source="#verts-array" />
        </vertices>
        <triangles count="24" material="material5">
          <input offset="0" semantic="VERTEX" source="#verts-array-vertices" />
          <input offset="1" semantic="NORMAL" source="#normals-array" />
          <p>1 1 3 3 0 0 4 4 1 1 0 0 0 0 3 3 2 2 2 2 4 4 0 0 1 1 7 7 3 3 5 5 1 1 4 4 5 5 7 7 1 1 3 3 7 7 2 2 6 6 4 4 2 2 2 2 7 7 6 6 6 6 5 5 4 4 7 7 5 5 6 6 9 9 11 11 8 8 12 12 9 9 8 8 8 8 11 11 10 10 10 10 12 12 8 8 9 9 15 15 11 11 13 13 9 9 12 12 13 13 15 15 9 9 11 11 15 15 10 10 14 14 12 12 10 10 10 10 15 15 14 14 14 14 13 13 12 12 15 15 13 13 14 14</p>
        </triangles>
      </mesh>
    </geometry>
    <geometry id="86d1d52950674bf6bba1900ac39b7233" name="20e1cec2ed8f4a7086812b52bb1994a7">
      <mesh>
        <source id="verts-array">
          <float_array count="48" id="verts-array-array">-0.5 0.275 0.27 -0.5 0.275 0.33 -0.5 0.4 0.27 -0.5 0.4 0.33 -0.49667 0.275 0.27 -0.49667 0.275 0.33 -0.49667 0.4 0.27 -0.49667 0.4 0.33 -0.5 -0.4 0.27 -0.5 -0.4 0.33 -0.5 -0.275 0.27 -0.5 -0.275 0.33 -0.49667 -0.4 0.27 -0.49667 -0.4 0.33 -0.49667 -0.275 0.27 -0.49667 -0.275 0.33</float_array>
          <technique_common>
            <accessor count="16" source="#verts-array-array" stride="3">
              <param type="float" name="X" />
              <param type="float" name="Y" />
              <param type="float" name="Z" />
            </accessor>
          </technique_common>
        </source>
        <source id="normals-array">
          <float_array count="48" id="normals-array-array">-0.5773503 -0.5773503 -0.5773503 -0.5773503 -0.5773503 0.5773503 -0.5773503 0.5773503 -0.5773503 -0.5773503 0.5773503 0.5773503 0.5773503 -0.5773503 -0.5773503 0.5773503 -0.5773503 0.5773503 0.5773503 0.5773503 -0.5773503 0.5773503 0.5773503 0.5773503 -0.5773503 -0.5773503 -0.5773503 -0.5773503 -0.5773503 0.5773503 -0.5773503 0.5773503 -0.5773503 -0.5773503 0.5773503 0.5773503 0.5773503 -0.5773503 -0.5773503 0.5773503 -0.5773503 0.5773503 0.5773503 0.5773503 -0.5773503 0.5773503 0.5773503 0.5773503</float_array>
          <technique_common>
            <accessor count="16" source="#normals-array-array" stride="3">
              <param type="float" name="X" />
              <param type="float" name="Y" />
              <param type="float" name="Z" />
            </accessor>
          </technique_common>
        </source>
        <vertices id="verts-array-vertices">
          <input semantic="POSITION" source="#verts-array" />
        </vertices>
        <triangles count="24" material="material6">
          <input offset="0" semantic="VERTEX" source="#verts-array-vertices" />
          <input offset="1" semantic="NORMAL" source="#normals-array" />
          <p>1 1 3 3 0 0 4 4 1 1 0 0 0 0 3 3 2 2 2 2 4 4 0 0 1 1 7 7 3 3 5 5 1 1 4 4 5 5 7 7 1 1 3 3 7 7 2 2 6 6 4 4 2 2 2 2 7 7 6 6 6 6 5 5 4 4 7 7 5 5 6 6 9 9 11 11 8 8 12 12 9 9 8 8 8 8 11 11 10 10 10 10 12 12 8 8 9 9 15 15 11 11 13 13 9 9 12 12 13 13 15 15 9 9 11 11 15 15 10 10 14 14 12 12 10 10 10 10 15 15 14 14 14 14 13 13 12 12 15 15 13 13 14 14</p>
        </triangles>
      </mesh>
    </geometry>
  </library_geometries>
  <library_materials>
    <material id="ee50ffeafcb44940a8b8892d2c7f5162" name="defaultmaterial">
      <instance_effect url="#cfbdf1e1602d438997fc2a3c45ec27a6" />
    </material>
    <material id="73aa32ae30624ce9b76a6c28f00c68d5" name="defaultmaterial">
      <instance_effect url="#f43c22f02cea4f73808f9763476c6141" />
    </material>
    <material id="2352b813294c49828826cac58ff4aa49" name="defaultmaterial">
      <instance_effect url="#b04dce176a5a4dd79c6e879620b6fdce" />
    </material>
    <material id="7f6614831373466d90525d1790936939" name="defaultmaterial">
      <instance_effect url="#08a89f3dbbb44028b753486dc607204d" />
    </material>
    <material id="bb7d89e591e34612884dfe87f6d10a99" name="defaultmaterial">
      <instance_effect url="#d732f0835c98440782461e6668a26af4" />
    </material>
    <material id="256929e8f2bb411c9754dd3e6531659b" name="defaultmaterial">
      <instance_effect url="#e2aa41f1e8084c19bec4d48e17e94ccd" />
    </material>
    <material id="f179726d950c4295b2df8e4429ca5402" name="defaultmaterial">
      <instance_effect url="#c5c6d6da2dd544ffb449eb51311458be" />
    </material>
  </library_materials>
  <library_visual_scenes>
    <visual_scene id="scene">
      <node id="node0" name="node0">
        <instance_geometry url="#200c5960338945c6aaf6e1dc3a3d2ead">
          <bind_material>
            <technique_common>
              <instance_material symbol="material0" target="#ee50ffeafcb44940a8b8892d2c7f5162" />
            </technique_common>
          </bind_material>
        </instance_geometry>
      </node>
      <node id="node1" name="node1">
        <instance_geometry url="#4c2f616c1b874e4783517b0545a9a834">
          <bind_material>
            <technique_common>
              <instance_material symbol="material1" target="#73aa32ae30624ce9b76a6c28f00c68d5" />
            </technique_common>
          </bind_material>
        </instance_geometry>
      </node>
      <node id="node2" name="node2">
        <instance_geometry url="#f551d8fa0df8476b9243b5189dd8b00c">
          <bind_material>
            <technique_common>
              <instance_material symbol="material2" target="#2352b813294c49828826cac58ff4aa49" />
            </technique_common>
          </bind_material>
        </instance_geometry>
      </node>
      <node id="node3" name="node3">
        <instance_geometry url="#e6eefd30bbee4a7eba2d557c5661a5d3">
          <bind_material>
            <technique_common>
              <instance_material symbol="material3" target="#7f6614831373466d90525d1790936939" />
            </technique_common>
          </bind_material>
        </instance_geometry>
      </node>
      <node id="node4" name="node4">
        <instance_geometry url="#50a73f034bc14583b529e30610139a91">
          <bind_material>
            <technique_common>
              <instance_material symbol="material4" target="#bb7d89e591e34612884dfe87f6d10a99" />
            </technique_common>
          </bind_material>
        </instance_geometry>
      </node>
      <node id="node5" name="node5">
        <instance_geometry url="#a0a5fad2fbc643dcb12ee92aa5f1b138">
          <bind_material>
            <technique_common>
              <instance_material symbol="material5" target="#256929e8f2bb411c9754dd3e6531659b" />
            </technique_common>
          </bind_material>
        </instance_geometry>
      </node>
      <node id="node6" name="node6">
        <instance_geometry url="#86d1d52950674bf6bba1900ac39b7233">
          <bind_material>
            <technique_common>
              <instance_material symbol="material6" target="#f179726d950c4295b2df8e4429ca5402" />
            </technique_common>
          </bind_material>
        </instance_geometry>
      </node>
    </visual_scene>
  </library_visual_scenes>
  <scene>
    <instance_visual_scene url="#scene" />
  </scene>
</COLLADA>
